<svg width="16" height="20" viewBox="0 0 16 20" fill="none" xmlns="http://www.w3.org/2000/svg">
<path d="M1 1V0.25C0.585786 0.25 0.25 0.585786 0.25 1L1 1ZM15 19V19.75C15.4142 19.75 15.75 19.4142 15.75 19H15ZM1 19H0.25C0.25 19.4142 0.585786 19.75 1 19.75L1 19ZM10 1L10.5303 0.46967C10.3897 0.329018 10.1989 0.25 10 0.25V1ZM15 6H15.75C15.75 5.80109 15.671 5.61032 15.5303 5.46967L15 6ZM4 14.25C3.58579 14.25 3.25 14.5858 3.25 15C3.25 15.4142 3.58579 15.75 4 15.75V14.25ZM12 15.75C12.4142 15.75 12.75 15.4142 12.75 15C12.75 14.5858 12.4142 14.25 12 14.25V15.75ZM4 10.25C3.58579 10.25 3.25 10.5858 3.25 11C3.25 11.4142 3.58579 11.75 4 11.75V10.25ZM10 11.75C10.4142 11.75 10.75 11.4142 10.75 11C10.75 10.5858 10.4142 10.25 10 10.25V11.75ZM15 18.25H1V19.75H15V18.25ZM1.75 19V1H0.25V19H1.75ZM1 1.75H10V0.25H1V1.75ZM14.25 6V19H15.75V6H14.25ZM9.46967 1.53033L14.4697 6.53033L15.5303 5.46967L10.5303 0.46967L9.46967 1.53033ZM8.25 1V5H9.75V1H8.25ZM11 7.75H15V6.25H11V7.75ZM8.25 5C8.25 6.51878 9.48122 7.75 11 7.75V6.25C10.3096 6.25 9.75 5.69036 9.75 5H8.25ZM4 15.75H12V14.25H4V15.75ZM4 11.75H10V10.25H4V11.75Z" fill="#555555"/>
</svg>
